<svg width="176" height="21" viewBox="0 0 176 21" fill="none" xmlns="http://www.w3.org/2000/svg">
<path d="M173.001 20.145C170.091 20.145 168.873 18.8435 168.873 16.2122V8.3466H166.23V5.65871H168.873V1.61273H172.08V5.65871H176V8.3466H172.08V15.901C172.08 17.0327 172.526 17.4571 173.743 17.4571H176V20.145H173.001Z" fill="white"/>
<path d="M161.785 20.145V5.65872H165.022V20.145H161.785ZM163.388 3.5367C162.349 3.5367 161.518 2.77277 161.518 1.7542C161.518 0.735632 162.349 0 163.388 0C164.457 0 165.259 0.735632 165.259 1.7542C165.259 2.77277 164.457 3.5367 163.388 3.5367Z" fill="white"/>
<path d="M150.874 20.3148C146.746 20.3148 143.688 17.542 143.688 12.9019C143.688 8.43149 146.746 5.48896 150.874 5.48896C153.25 5.48896 154.883 6.39435 155.804 7.69586V0.339526H159.011V20.145H156.219L155.863 17.9381C154.853 19.2396 153.279 20.3148 150.874 20.3148ZM151.409 17.7118C154.081 17.7118 155.833 15.7878 155.833 12.9585C155.833 10.0442 154.081 8.09197 151.409 8.09197C148.736 8.09197 146.984 10.0442 146.984 12.9019C146.984 15.7878 148.736 17.7118 151.409 17.7118Z" fill="white"/>
<path d="M135.184 20.3148C130.403 20.3148 127.404 17.3723 127.404 12.9302C127.404 8.45978 130.403 5.48895 134.887 5.48895C139.253 5.48895 142.252 8.17684 142.252 12.5341V13.5809H130.76V13.7507C130.76 16.1839 132.482 17.825 135.006 17.825C136.996 17.825 138.451 16.8913 138.896 15.3068H142.103C141.569 18.1362 138.956 20.3148 135.184 20.3148ZM130.849 11.3174H138.985C138.718 9.16712 137.174 7.95049 134.917 7.95049C132.898 7.95049 131.116 9.19541 130.849 11.3174Z" fill="white"/>
<path d="M118.618 20.145V5.65871H121.439L121.765 7.83731C122.537 6.64898 123.725 5.65871 126.279 5.65871H127.021V8.51636H125.626C122.745 8.51636 121.854 10.6384 121.854 12.8736V20.145H118.618Z" fill="white"/>
<path d="M109.6 20.3148C104.938 20.3148 102.058 17.4571 102.058 12.9302C102.058 8.45978 105.086 5.48895 109.689 5.48895C113.609 5.48895 116.044 7.55438 116.668 10.8364H113.312C112.896 9.13882 111.619 8.09196 109.63 8.09196C107.046 8.09196 105.354 10.0725 105.354 12.9302C105.354 15.7595 107.017 17.7118 109.63 17.7118C111.619 17.7118 112.896 16.6366 113.312 14.939H116.668C116.074 18.2494 113.49 20.3148 109.6 20.3148Z" fill="white"/>
<path d="M99.2548 20.3148C98.067 20.3148 97.2058 19.5226 97.2058 18.3908C97.2058 17.2591 98.067 16.4669 99.2548 16.4669C100.443 16.4669 101.333 17.2591 101.333 18.3908C101.333 19.5226 100.443 20.3148 99.2548 20.3148Z" fill="white"/>
<path d="M86.6812 20.3148C82.5536 20.3148 79.495 17.542 79.495 12.9019C79.495 8.43149 82.5536 5.48896 86.6812 5.48896C89.0569 5.48896 90.6901 6.39435 91.6106 7.69586V0.339526H94.8177V20.145H92.0264L91.67 17.9381C90.6604 19.2396 89.0866 20.3148 86.6812 20.3148ZM87.2157 17.7118C89.8883 17.7118 91.6404 15.7878 91.6404 12.9585C91.6404 10.0442 89.8883 8.09197 87.2157 8.09197C84.5432 8.09197 82.7912 10.0442 82.7912 12.9019C82.7912 15.7878 84.5432 17.7118 87.2157 17.7118Z" fill="white"/>
<path d="M63.4296 20.145V5.65871H66.2507L66.5773 7.55438C67.4979 6.45093 68.9826 5.48895 71.4473 5.48895C74.8326 5.48895 77.5646 7.24315 77.5646 12.0814V20.145H74.3575V12.3077C74.3575 9.56323 73.1103 8.12025 70.7347 8.12025C68.0324 8.12025 66.6664 9.73299 66.6664 12.5058V20.145H63.4296Z" fill="white"/>
<path d="M53.6051 20.3148C48.9726 20.3148 45.8546 17.344 45.8546 12.9019C45.8546 8.48807 48.9726 5.48895 53.6051 5.48895C58.2375 5.48895 61.3555 8.48807 61.3555 12.9019C61.3555 17.344 58.2375 20.3148 53.6051 20.3148ZM53.6051 17.7118C56.3073 17.7118 58.0891 15.7029 58.0891 12.9019C58.0891 10.1008 56.3073 8.09196 53.6051 8.09196C50.9028 8.09196 49.1508 10.1008 49.1508 12.9019C49.1508 15.7029 50.9028 17.7118 53.6051 17.7118Z" fill="white"/>
<path d="M37.2007 20.3148C34.7954 20.3148 33.1622 19.3528 32.2416 18.023L31.8853 20.145H29.0642V0.339526H32.301V7.78074C33.2809 6.53582 34.8548 5.48896 37.2304 5.48896C41.3581 5.48896 44.4167 8.23344 44.4167 12.9019C44.4167 17.344 41.3581 20.3148 37.2007 20.3148ZM36.6662 17.7118C39.3388 17.7118 41.1205 15.7878 41.1205 12.9019C41.1205 10.0442 39.3388 8.09197 36.6662 8.09197C34.0233 8.09197 32.2416 10.0442 32.2416 12.8736C32.2416 15.7595 34.0233 17.7118 36.6662 17.7118Z" fill="white"/>
<path d="M3.6 20H0V16.4H3.6V20Z" fill="white"/>
<path d="M10.8 20H7.2V12.8H0V9.2H10.8V20Z" fill="white"/>
<path d="M18 20H14.4V5.6H0V2H18V20Z" fill="white"/>
</svg>
